<svg id="Layer_1" data-name="Layer 1" xmlns="http://www.w3.org/2000/svg" viewBox="0 0 200 104.007"><defs><style>.cls-1{fill:#56bbff;}</style></defs><title>logo</title><path class="cls-1" d="M11.011,2.6L47.422,3.8,57.67,3.582A33.647,33.647,0,0,1,58,8.359a5.764,5.764,0,0,1-.872,3.582,3.869,3.869,0,0,1-3.161,1.086q-0.22,0-15.372-1.411a136,136,0,0,1-3.27,16.718q-2.837,11.834-5.451,25.3a135.267,135.267,0,0,0-2.729,24.207Q22.894,80.01,9.7,80.009H8.939q0-5.643,6.214-33.654t6.214-34.087a9.175,9.175,0,0,0-.218-1.52h-4.36q-8.941,0-13.736,2.714Q0.544,10.205,0,3.908,3.7,2.6,11.011,2.6Z"/><path class="cls-1" d="M46.724,71.487q0-4.612,2.834-15.849t2.835-13.787q0-2.55-3.925-6.785l0.109-1.411a100.849,100.849,0,0,1,19.514-1.52,16.136,16.136,0,0,1,.545,5.1q0,3.693-3.053,15.742T62.532,67.958q0,2.932,2.18,2.931a15.612,15.612,0,0,0,7.3-2.28q0.434-2.6,2.18-9.988,3.925-17.369,3.925-24.86,3.819-1.52,13.74-1.52h2.071q0,5.1-3.052,19.921t-3.052,17.37q0,2.552,1.09,2.552,0.654,0,6.214-2.605L97.2,72.953q-9.7,8.034-17.007,8.034a9.234,9.234,0,0,1-5.941-1.955,7.225,7.225,0,0,1-2.78-5.1Q62.641,81.1,55.447,81.1a8.41,8.41,0,0,1-6.269-2.5Q46.725,76.1,46.724,71.487Z"/><path class="cls-1" d="M128.485,3.908q0,8.252-5.559,32.351,6.54-4.666,11.828-4.668a11.52,11.52,0,0,1,9.048,4.4q3.761,4.4,3.761,13.407,0,15.091-5.942,23.34t-14.444,8.251a27.669,27.669,0,0,1-6.378-.761,21.152,21.152,0,0,1-4.851-1.628l-1.635-.76a41.938,41.938,0,0,1-13.627,2.388q-0.654-.544-0.654-5.264t6.1-31.265q6.1-26.543,6.106-36.313a23.567,23.567,0,0,0-.538-4.455A49.818,49.818,0,0,1,127.941,0,11.8,11.8,0,0,1,128.485,3.908ZM127.5,40.818q-2.072,0-6.214,1.955-5.015,21.063-5.45,30.18a15.685,15.685,0,0,0,6.213,1.411q4.142,0,6.922-7.6a48.488,48.488,0,0,0,2.78-16.772Q131.756,40.819,127.5,40.818Z"/><path class="cls-1" d="M162.171,80.117q-9.157,0-9.157-9.988,0-2.386,2.18-13.787a104.64,104.64,0,0,0,2.18-19,10.272,10.272,0,0,0-.437-3.039q5.888-2.28,16.135-2.28a17.3,17.3,0,0,1,.545,5.21q0,3.693-2.4,15.308t-2.4,14.981q0,3.367,2.835,3.365,3.378,0,8.176-3.365,0.544-6.4,4.361-33.762,3.814-1.519,13.735-1.52H200a209.646,209.646,0,0,0-4.034,23.449Q194,71,192.8,76.969q-2.289,11.941-8.45,19.486A19.772,19.772,0,0,1,168.276,104a12.965,12.965,0,0,1-7.141-2.062,6.141,6.141,0,0,1-3.216-5.319q0-4.344,5.341-7.925t14.391-5.537q0.982-4.777,1.526-9.227Q170.347,80.118,162.171,80.117Zm5.288,11.291q-3.659,2.17-3.652,4.233t2.344,2.063a9.152,9.152,0,0,0,5.287-2.226,16.242,16.242,0,0,0,4.907-7.219,26.961,26.961,0,0,0-8.887,3.149h0Z"/></svg>