<?xml version="1.0" standalone="no"?>
<!DOCTYPE svg PUBLIC "-//W3C//DTD SVG 20010904//EN"
 "http://www.w3.org/TR/2001/REC-SVG-20010904/DTD/svg10.dtd">
<svg version="1.0" xmlns="http://www.w3.org/2000/svg"
 width="1500.000000pt" height="1500.000000pt" viewBox="0 0 1500.000000 1500.000000"
 preserveAspectRatio="xMidYMid meet">
<metadata>
Created by potrace 1.15, written by Peter Selinger 2001-2017
</metadata>
<g transform="translate(0.000000,1500.000000) scale(0.100000,-0.100000)"
fill="#000000" stroke="none">
<path d="M7135 14563 c-201 -60 -338 -187 -613 -568 -15 -22 -77 -112 -137
-200 -60 -88 -127 -186 -149 -217 -23 -32 -59 -83 -81 -115 -97 -138 -288
-369 -409 -491 -193 -197 -388 -348 -565 -438 -78 -39 -94 -68 -43 -78 204
-40 726 -36 922 9 230 52 365 91 426 123 10 5 48 24 84 42 36 18 76 41 89 51
25 20 71 26 71 9 0 -5 -4 -29 -9 -52 -9 -42 -24 -110 -57 -268 -9 -41 -22
-108 -29 -148 -8 -40 -17 -76 -20 -81 -3 -5 -12 -47 -21 -93 -8 -45 -35 -166
-59 -268 -25 -102 -63 -261 -85 -355 -23 -93 -51 -204 -64 -245 -13 -41 -36
-122 -51 -180 -16 -58 -39 -143 -52 -190 -14 -47 -33 -119 -45 -160 -42 -158
-115 -404 -197 -670 -11 -36 -29 -94 -40 -130 -10 -36 -40 -128 -66 -205 -26
-77 -51 -153 -55 -170 -10 -36 -123 -364 -180 -525 -23 -63 -48 -133 -55 -155
-8 -22 -25 -69 -39 -105 -13 -36 -40 -108 -59 -160 -55 -150 -107 -274 -121
-288 -16 -16 -98 -29 -261 -42 -71 -5 -170 -17 -220 -25 -49 -8 -126 -19 -170
-24 -184 -23 -562 -93 -725 -135 -30 -8 -93 -24 -140 -36 -147 -38 -345 -98
-445 -135 -33 -12 -82 -31 -110 -41 -27 -10 -59 -24 -70 -31 -11 -7 -25 -13
-32 -13 -6 0 -75 -30 -152 -67 -189 -91 -189 -91 2 -182 174 -83 176 -84 312
-133 174 -62 294 -97 510 -148 72 -17 153 -37 180 -45 28 -7 73 -17 100 -20
28 -4 73 -13 100 -20 28 -7 70 -16 95 -20 25 -3 95 -14 155 -25 252 -43 294
-49 367 -56 56 -5 82 -12 94 -25 16 -17 15 -24 -16 -101 -35 -87 -100 -209
-159 -293 -97 -140 -283 -341 -396 -426 -90 -68 -80 -74 115 -71 90 1 180 6
199 12 46 12 58 1 41 -40 -8 -19 -46 -56 -106 -100 -51 -39 -121 -96 -154
-127 -63 -59 -179 -200 -220 -266 -13 -22 -75 -80 -144 -135 -364 -288 -567
-579 -653 -937 -24 -98 -26 -130 -27 -300 0 -199 10 -272 65 -460 44 -146 146
-378 236 -534 99 -170 330 -479 482 -646 128 -140 406 -408 549 -531 126 -109
412 -338 478 -384 12 -8 67 -48 122 -87 181 -131 366 -252 662 -433 47 -28
261 -150 264 -150 2 0 33 -16 68 -36 74 -43 323 -168 423 -214 39 -18 102 -47
142 -66 40 -19 76 -34 80 -34 3 0 25 -9 47 -19 51 -25 208 -88 261 -106 22 -8
78 -27 125 -44 46 -17 101 -31 122 -31 37 0 107 20 213 60 28 11 82 31 120 46
286 109 751 333 1085 524 850 484 1632 1122 2118 1728 92 115 252 349 314 457
107 191 219 463 243 595 3 19 13 64 22 100 13 49 17 114 17 265 0 175 -3 211
-23 290 -33 133 -57 197 -119 324 -105 214 -290 428 -538 624 -69 54 -131 112
-144 134 -79 131 -225 283 -381 400 -120 88 -146 154 -53 133 23 -5 115 -11
205 -12 189 -3 203 4 119 61 -27 18 -96 79 -153 135 -206 203 -348 408 -428
621 -29 77 -17 90 89 99 73 7 115 13 367 56 61 11 130 22 155 25 25 4 68 13
95 20 28 7 73 16 100 20 28 3 73 13 100 20 28 8 109 28 180 45 295 69 532 146
735 237 30 14 63 29 72 34 9 4 48 25 87 44 100 51 98 67 -17 122 -219 106
-319 146 -552 223 -329 108 -790 210 -1175 260 -44 6 -118 17 -165 25 -47 8
-121 17 -165 20 -142 11 -269 26 -300 36 -23 7 -35 21 -51 62 -25 60 -88 227
-129 337 -15 41 -31 84 -36 95 -11 24 -74 199 -99 275 -10 30 -30 87 -45 125
-14 39 -31 88 -37 110 -6 22 -14 45 -18 50 -5 6 -13 30 -19 55 -7 25 -18 61
-25 80 -8 19 -42 123 -76 230 -34 107 -70 220 -80 250 -31 98 -102 334 -159
530 -49 167 -61 209 -86 305 -15 55 -35 125 -46 155 -19 57 -48 174 -125 510
-24 107 -60 254 -78 325 -18 72 -44 175 -56 230 -13 55 -31 134 -40 175 -10
41 -21 95 -25 120 -4 25 -13 68 -20 95 -8 28 -24 95 -36 150 -12 55 -30 130
-40 167 -11 36 -19 72 -19 80 0 7 -9 42 -19 78 -11 36 -30 99 -41 140 -40 138
-102 335 -121 382 -10 26 -19 52 -19 58 0 7 -6 26 -14 43 -21 46 -66 162 -66
170 0 4 -21 51 -46 104 -163 346 -270 511 -432 664 -96 91 -187 147 -289 179
-80 24 -242 26 -318 3z m264 -7687 c15 -8 36 -26 45 -40 22 -35 46 -34 46 2 0
46 14 52 135 52 121 0 135 -6 135 -52 0 -35 21 -37 47 -5 44 55 53 57 264 57
157 0 199 -3 208 -14 10 -12 -19 -37 -156 -142 -140 -106 -174 -128 -210 -132
-57 -6 -86 3 -128 39 l-35 31 0 -46 c0 -49 23 -119 49 -150 9 -10 41 -30 71
-45 66 -32 80 -56 122 -221 27 -103 29 -126 24 -213 -4 -58 -14 -117 -25 -147
-11 -28 -16 -50 -11 -50 9 0 83 79 97 104 13 23 50 9 106 -43 39 -36 53 -61
103 -179 20 -46 17 -139 -5 -187 -16 -36 -26 -44 -109 -78 -50 -21 -96 -36
-102 -32 -6 4 -11 21 -10 39 1 17 2 35 1 40 -2 19 -64 -51 -119 -134 -107
-162 -195 -224 -317 -224 -119 0 -213 64 -309 212 -55 85 -103 142 -120 142
-8 0 -11 -12 -8 -35 6 -48 -14 -53 -85 -20 -32 15 -72 34 -90 42 -98 45 -77
257 38 386 54 60 115 91 130 66 21 -37 71 -100 76 -95 3 3 -2 46 -12 97 -27
136 -14 252 51 452 14 42 21 50 70 73 86 41 144 123 144 205 0 38 -9 41 -45
13 -62 -47 -84 -43 -245 36 -170 84 -261 157 -246 195 8 22 384 22 425 1z
m-784 -14 c40 -15 319 -191 518 -327 38 -27 52 -71 25 -80 -7 -2 -78 -12 -158
-20 -80 -9 -147 -19 -149 -21 -9 -9 10 -15 138 -44 73 -16 136 -32 140 -35 4
-2 1 -35 -7 -72 -12 -56 -12 -83 -2 -157 13 -95 9 -106 -35 -106 -31 0 -127
-64 -162 -107 -61 -77 -107 -191 -118 -297 -4 -36 -13 -70 -21 -77 -9 -8 -36
-8 -96 0 -78 9 -114 7 -253 -15 -28 -5 -35 1 -100 88 -38 51 -111 136 -161
188 -50 52 -119 130 -153 174 -93 119 -86 129 55 79 54 -19 106 -37 115 -40
13 -4 8 21 -27 124 -64 190 -77 269 -72 431 5 143 11 172 34 172 8 0 47 -27
86 -61 73 -60 252 -159 290 -159 16 0 11 10 -30 55 -59 65 -122 183 -122 231
0 50 18 62 125 87 42 10 92 6 140 -11z m2187 4 c78 -21 85 -25 98 -57 10 -23
10 -35 -1 -61 -15 -37 -115 -173 -153 -207 -14 -14 -26 -31 -26 -39 0 -22 48
-9 155 42 67 32 110 61 162 110 72 67 96 79 107 50 4 -9 11 -79 16 -154 11
-168 -3 -280 -55 -428 -19 -56 -35 -105 -35 -111 0 -7 123 19 198 43 19 6 22
4 22 -17 0 -31 -39 -85 -164 -226 -165 -186 -195 -221 -228 -270 -17 -25 -32
-48 -34 -50 -1 -1 -24 4 -51 13 -52 17 -200 23 -289 11 -67 -9 -79 4 -88 92
-15 145 -43 214 -121 301 -51 57 -111 96 -163 107 -32 7 -32 8 -25 43 9 41 10
166 3 227 l-5 40 50 6 c100 14 230 40 238 48 4 4 -63 18 -148 31 -129 19 -158
27 -166 43 -21 39 -3 60 98 112 121 62 279 168 359 239 84 75 142 90 246 62z
m-1105 -2282 c56 -26 66 -27 263 -30 242 -4 284 -8 369 -33 191 -59 305 -233
292 -449 -1 -17 -12 -27 -38 -39 -69 -28 -349 0 -518 53 -67 21 -157 56 -172
67 -22 16 -32 -1 -21 -39 8 -29 7 -40 -6 -52 -21 -21 -44 -9 -140 74 -43 38
-85 73 -92 79 -10 7 -25 -1 -56 -31 -65 -62 -157 -134 -172 -134 -27 0 -38 27
-27 64 10 39 2 52 -26 37 -165 -89 -582 -161 -685 -118 l-38 16 0 74 c0 180
117 347 274 391 79 22 128 27 373 35 211 8 233 10 288 34 33 13 63 25 67 26 4
0 33 -11 65 -25z"/>
<path d="M7560 4409 c-101 -11 -200 -54 -200 -86 0 -12 7 -14 33 -8 111 23
347 23 465 -1 25 -5 32 -3 32 9 0 20 -36 43 -107 66 -71 24 -138 30 -223 20z"/>
</g>
</svg>
